<?xml version="1.0" standalone="no"?><!DOCTYPE svg PUBLIC "-//W3C//DTD SVG 1.1//EN" "http://www.w3.org/Graphics/SVG/1.1/DTD/svg11.dtd"><svg class="icon" width="64px" height="64.00px" viewBox="0 0 1024 1024" version="1.1" xmlns="http://www.w3.org/2000/svg"><path d="M511.870707 512zM0 512c0 282.763636 229.236364 512 512 512s512-229.236364 512-512S794.763636 0 512 0C229.365657 0 0 229.236364 0 512" fill="#f1b43f" /><path d="M740.072727 739.943434H578.585859c-11.894949 16.808081-37.107071 27.927273-66.456566 27.927273-29.478788 0-54.561616-11.507071-66.456566-27.927273H284.315152c-23.272727 0-42.020202-19.006061-42.020203-42.020202V298.149495c0-23.272727 19.006061-42.020202 42.020203-42.020202h161.228282c16.937374 0 49.648485 17.325253 66.456566 35.555555 16.937374-18.488889 49.648485-35.555556 66.456566-35.555555h161.228282c23.272727 0 42.020202 19.006061 42.020203 42.020202v399.773737c0.646465 23.014141-18.359596 42.020202-41.632324 42.020202z m21.204041-426.278788c0-20.169697-16.161616-36.460606-35.555556-36.460606H589.575758c-19.781818 0-66.456566 29.478788-66.456566 49.648485v223.806061h-20.816162v-223.676768c0-20.169697-46.933333-49.648485-66.456565-49.648485H299.70101c-19.781818 0-35.555556 16.420202-35.555555 36.460606v368.614142c0 20.169697 16.161616 36.460606 35.555555 36.460606h161.357576c0 14.739394 23.272727 26.246465 51.329293 26.246465 28.315152 0 51.329293-11.894949 51.329293-26.246465h161.616161c19.781818 0 35.555556-16.420202 35.555556-36.460606V313.664646h0.387879z" fill="#ffffff" /></svg>