<?xml version="1.0" standalone="no"?><!DOCTYPE svg PUBLIC "-//W3C//DTD SVG 1.1//EN" "http://www.w3.org/Graphics/SVG/1.1/DTD/svg11.dtd"><svg class="icon" width="64px" height="64.00px" viewBox="0 0 1024 1024" version="1.1" xmlns="http://www.w3.org/2000/svg"><path d="M636.189829 256.56324l20.762484 31.475563-286.179921 188.775206-20.762484-31.475563 286.179921-188.775206Z"  /><path d="M648.825671 756.469822l-20.762484 31.475563-286.179921-188.775206 20.762484-31.475563 286.179921 188.775206Z"  /><path d="M739.068064 331.61977c-63.180971 0-114.583688-51.401694-114.583688-114.582665S675.887093 102.45444 739.068064 102.45444s114.582665 51.401694 114.582665 114.582665S802.250058 331.61977 739.068064 331.61977zM739.068064 140.316769c-42.304502 0-76.721359 34.416857-76.721359 76.720336s34.416857 76.720336 76.721359 76.720336c42.303478 0 76.720336-34.416857 76.720336-76.720336S781.371542 140.316769 739.068064 140.316769z"  /><path d="M738.044758 921.972279c-63.180971 0-114.583688-51.40067-114.583688-114.582665s51.401694-114.583688 114.583688-114.583688 114.582665 51.401694 114.582665 114.583688S801.226752 921.972279 738.044758 921.972279zM738.044758 730.669278c-42.304502 0-76.721359 34.416857-76.721359 76.721359 0 42.303478 34.416857 76.720336 76.721359 76.720336 42.303478 0 76.720336-34.416857 76.720336-76.720336C814.765093 765.085112 780.348236 730.669278 738.044758 730.669278z"  /><path d="M270.824637 629.976972c-63.181995 0-114.583688-51.40067-114.583688-114.582665 0-63.180971 51.401694-114.582665 114.583688-114.582665 63.180971 0 114.582665 51.401694 114.582665 114.582665C385.407302 578.576301 334.005608 629.976972 270.824637 629.976972zM270.824637 438.674994c-42.303478 0-76.721359 34.416857-76.721359 76.720336s34.416857 76.720336 76.721359 76.720336c42.303478 0 76.720336-34.416857 76.720336-76.720336S313.128115 438.674994 270.824637 438.674994z"  /></svg>