<?xml version="1.0" standalone="no"?><!DOCTYPE svg PUBLIC "-//W3C//DTD SVG 1.1//EN" "http://www.w3.org/Graphics/SVG/1.1/DTD/svg11.dtd"><svg class="icon" width="200px" height="200.00px" viewBox="0 0 1024 1024" version="1.1" xmlns="http://www.w3.org/2000/svg"><path d="M460.119516 878.591386c-51.266513 0-101.202758-9.721195-148.478465-28.8566-49.015289-19.851704-92.91416-49.015289-130.571-86.67213s-66.820426-81.555711-86.67213-130.571c-19.135405-47.275707-28.8566-97.211952-28.8566-148.478465s9.721195-101.202758 28.8566-148.478465c19.851704-49.015289 49.015289-92.91416 86.67213-130.571 37.65684-37.759169 81.555711-66.922754 130.571-86.774458 47.275707-19.135405 97.211952-28.8566 148.478465-28.8566 51.266513 0 101.202758 9.721195 148.478465 28.8566 49.015289 19.851704 92.91416 49.015289 130.571 86.67213 54.029379 54.029379 90.867593 121.77076 106.830818 196.163486 15.451584 72.346158 10.437494 147.352853-14.530629 216.833816-4.809433 13.302688-19.44239 20.158689-32.745078 15.451584-13.302688-4.809433-20.158689-19.44239-15.451584-32.745078 44.922154-124.738283 13.405016-265.746777-80.327771-359.479564C568.996902 107.137804 351.139802 107.137804 217.191966 241.08564s-133.947837 351.804937 0 485.752773 351.804937 133.947837 485.752773 0c10.02818-10.02818 26.196063-10.02818 36.224243 0 10.02818 10.02818 10.02818 26.196063 0 36.224243-37.65684 37.65684-81.555711 66.820426-130.571 86.67213C561.322274 868.870191 511.283701 878.591386 460.119516 878.591386z"  /><path d="M932.774258 982.147697c-6.549016 0-13.098031-2.455881-18.112122-7.469971L702.944739 762.960328c-10.02818-10.02818-10.02818-26.196063 0-36.224243 10.02818-10.02818 26.196063-10.02818 36.224243 0l211.717398 211.717398c10.02818 10.02818 10.02818 26.196063 0 36.224243C945.769961 979.589487 939.323274 982.147697 932.774258 982.147697z"  /></svg>