<?xml version="1.0" standalone="no"?><!DOCTYPE svg PUBLIC "-//W3C//DTD SVG 1.1//EN" "http://www.w3.org/Graphics/SVG/1.1/DTD/svg11.dtd"><svg class="icon" width="64px" height="64.00px" viewBox="0 0 1024 1024" version="1.1" xmlns="http://www.w3.org/2000/svg"><path d="M945.377 325.645h-8.35a460.998 460.998 0 0 0-2.761-6.688c-23.177-54.796-56.351-104.002-98.597-146.25-42.248-42.248-91.454-75.42-146.249-98.598-56.747-24.001-117.012-36.172-179.113-36.172-62.105 0-122.368 12.17-179.115 36.172-54.795 23.177-104 56.35-146.249 98.598-42.247 42.248-75.42 91.454-98.598 146.25a465.692 465.692 0 0 0-2.761 6.688H80.25c-27.683 0-50.124 22.441-50.124 50.124v136.335c0 27.682 22.441 50.124 50.124 50.124h47.115c27.683 0 50.124-22.442 50.124-50.124V375.769c0-20.54-12.359-38.183-30.042-45.927C211.093 193.105 349.811 98.085 510.308 98.085c161.279 0 300.565 95.954 363.784 233.768-15.47 8.533-25.954 24.998-25.954 43.916v136.335c0 27.682 22.441 50.124 50.122 50.124h6.939c-26.202 163.402-150.944 293.975-312.9 327.467-6.579-37.954-39.648-66.827-79.486-66.827-44.568 0-80.698 36.129-80.698 80.698s36.13 80.699 80.698 80.699c25.699 0 48.573-12.025 63.352-30.741 101.364-14.5 194.709-62.291 266.472-137.211 68.573-71.589 111.505-161.858 123.996-258.814 17.052-7.998 28.868-25.313 28.868-45.395V375.769c-0.001-27.683-22.442-50.124-50.124-50.124z" fill="#36c122" /><path d="M827.087 494.059c0-172.737-140.033-312.769-312.771-312.769-172.736 0-312.768 140.032-312.768 312.769S341.58 806.828 514.316 806.828c172.738-0.001 312.771-140.032 312.771-312.769zM359.938 568.24c0-2.014 0.05-4.019 0.128-6.013h304.491c0.079 1.994 0.13 3.999 0.13 6.013 0 84.154-68.22 152.377-152.375 152.377-84.154 0-152.374-68.222-152.374-152.377z" fill="#36c122" /></svg>