<?xml version="1.0" standalone="no"?><!DOCTYPE svg PUBLIC "-//W3C//DTD SVG 1.1//EN" "http://www.w3.org/Graphics/SVG/1.1/DTD/svg11.dtd"><svg class="icon" width="64px" height="64.00px" viewBox="0 0 1024 1024" version="1.1" xmlns="http://www.w3.org/2000/svg"><path d="M853.005262 964.825099c-34.88894 0-67.280318-10.490758-94.329911-28.413262l-81.930017 81.546391c-7.738445 7.635546-21.996526 8.243952-29.734972 0.621394l-19.398062-21.544967c-7.766418-7.620561-6.111034-20.587901 1.655384-28.223447l81.437497-80.125778c-18.105325-27.095548-28.689992-59.593822-28.689992-94.585662 0-94.280959 76.558261-170.72633 170.989074-170.72633 94.445798 0 171.004059 76.445371 171.004059 170.72633s-76.557262 170.725331-171.00306 170.725331z m-0.261745-281.843853c-61.559903 0-111.461187 49.827357-111.461187 111.276368 0 61.45001 49.901284 111.291353 111.461187 111.291353 61.574888 0 111.492157-49.842342 111.492157-111.291353 0-61.449011-49.917269-111.276368-111.492157-111.276368z m-96.914388-335.157805c-1.016008 9.072143-2.365691 18.024404-4.122975 26.833804-0.305702 1.507528-0.682334 2.999072-1.016008 4.484621-1.742299 8.100092-3.761328 16.062319-6.128018 23.899669-0.421588 1.419614-0.798221 2.862206-1.24878 4.252848-2.627435 8.309888-5.662472 16.480911-8.972241 24.464117a234.751826 234.751826 0 0 1-2.700364 6.331819c-3.484598 7.912276-7.142028 15.706667-11.223044 23.241311-0.580433 1.086939-1.248781 2.122928-1.857187 3.186888-3.629457 6.543612-7.535643 12.867438-11.629646 19.10435-1.510525 2.289765-2.976095 4.587521-4.545563 6.853309-4.515592 6.51464-9.248971 12.867438-14.257081 19.011441-1.684356 2.070978-3.455626 4.085012-5.182941 6.113032a314.40007 314.40007 0 0 1-12.922384 14.200137c-1.800243 1.85419-3.557527 3.767322-5.372755 5.59354-5.516614 5.403725-11.295972 10.561689-17.189219 15.560808a295.792236 295.792236 0 0 1-7.244928 5.985157c-6.098047 4.882234-12.341951 9.605623-18.802644 14.025308 0.187817 0.069932 0.392617 0.187817 0.581433 0.274732 10.481767 4.518589 20.688803 9.503722 30.722008 14.762588 4.427678 2.333722 8.740467 4.797317 13.066244 7.245927 3.280797 1.868176 6.461692 3.897195 9.670559 5.868271-0.305702 0.230775-0.566447 0.49152-0.872149 0.724293 12.923384 7.44673 21.676838 20.921576 21.676839 36.469397l0.405604 3.941152c0 23.573986-19.875597 42.670343-44.397658 42.670344-15.173187 0-28.55812-7.332841-36.55831-18.531909-0.566447 0.928094-1.263766 1.768274-1.830213 2.69437-47.156963-25.327274-100.644747-40.51245-157.587157-42.277727-3.761328 0.14386-7.448728 0.562451-11.260008 0.562451-3.811279 0-7.476701-0.41959-11.244023-0.562451-177.276935 5.532599-321.804841 139.761559-342.981168 312.285135h-1.118908l0.05195 0.551462c0 24.587996-19.949524 44.509548-44.587472 44.509548-24.630954 0-44.60945-19.920553-44.609451-44.509548l-0.39861-4.129969c0-5.810328 1.183844-11.344925 3.21586-16.446943 0.07193-0.564449 0.209795-1.056968 0.283723-1.622417 4.187912-28.398276 10.983278-55.854473 20.26122-82.239714 0.304703-0.855165 0.609405-1.695345 0.921101-2.551509 5.844295-16.242144 12.544753-32.021739 20.13834-47.349775 0.732285-1.448586 1.371661-2.926143 2.104945-4.374729a457.62325 457.62325 0 0 1 11.905378-21.791726c1.517519-2.623439 3.150924-5.215908 4.733379-7.79539a442.470043 442.470043 0 0 1 22.431102-33.324468c2.628434-3.520563 5.183939-7.085083 7.905282-10.534715a444.079472 444.079472 0 0 1 13.162151-15.937441c3.832259-4.447658 7.832354-8.722485 11.832449-12.997312a454.171619 454.171619 0 0 1 20.08639-20.168311c4.922195-4.621488 9.873361-9.186032 15.005352-13.605717 4.355748-3.723365 8.733474-7.403772 13.235079-10.968293 6.598558-5.24488 13.364953-10.258985 20.253228-15.127232 5.466663-3.868224 11.049213-7.578601 16.681715-11.184081 6.817345-4.377726 13.727599-8.606598 20.805688-12.591708 4.304797-2.434623 8.610594-4.868247 13.016293-7.158012 9.770462-5.127994 19.68778-9.969268 29.865844-14.358982 0.260745-0.086915 0.521491-0.230775 0.754264-0.34866-6.50465-4.44566-12.754548-9.184034-18.880568-14.095239a262.905341 262.905341 0 0 1-7.100069-5.840299c-6.062082-5.129992-11.978306-10.418829-17.632786-15.996384-1.539497-1.507528-3.006065-3.129944-4.494612-4.694417-4.689422-4.796318-9.205014-9.780452-13.559763-14.880473-1.706334-1.985062-3.433648-3.912181-5.068052-5.9412-5.016103-6.170976-9.79244-12.575723-14.338003-19.111343-1.560477-2.265788-3.056017-4.563545-4.565543-6.853309-4.051045-6.163982-7.884303-12.42487-11.484788-18.870578-0.660355-1.152875-1.371661-2.311743-2.011037-3.493589-4.065032-7.511667-7.709474-15.234128-11.142122-23.095454-0.9221-2.1509-1.894151-4.302799-2.773293-6.475678-3.259818-7.912276-6.242905-15.961418-8.87034-24.183391-0.523489-1.629409-0.9221-3.259818-1.42361-4.890226a321.259374 321.259374 0 0 1-6.032112-23.421135c-0.333674-1.51552-0.690326-2.977094-0.995028-4.492614-1.771271-8.853357-3.121952-17.828595-4.137961-26.91972-0.239766-2.080968-0.406603-4.15894-0.595418-6.23891-0.85017-9.330891-1.415618-18.748697-1.415618-28.311361 0-172.435661 140.050277-312.176241 312.810621-312.176241 172.753351 0 312.802629 139.74058 312.80263 312.176241 0 9.532694-0.565448 18.959491-1.407626 28.289383-0.188816 2.101948-0.363645 4.202897-0.597417 6.302847zM444.936635 90.329816c-123.395536 0-223.430878 99.830541-223.430878 222.967331 0 123.142783 100.035341 222.994304 223.430878 222.994304 123.411521 0 223.446862-99.85252 223.446862-222.994304-0.000999-123.136789-100.03634-222.96733-223.446862-222.967331z" fill="#d3781e" /></svg>