<?xml version="1.0" standalone="no"?><!DOCTYPE svg PUBLIC "-//W3C//DTD SVG 1.1//EN" "http://www.w3.org/Graphics/SVG/1.1/DTD/svg11.dtd"><svg class="icon" width="64px" height="64.00px" viewBox="0 0 1024 1024" version="1.1" xmlns="http://www.w3.org/2000/svg"><path d="M64.3 511.7c0 247 200.2 447.1 447.1 447.1 247 0 447.1-200.2 447.1-447.1 0-247-200.2-447.1-447.1-447.1-246.9 0-447.1 200.2-447.1 447.1z m0 0" fill="#3ac569" /><path d="M696.2 705.4H326.8c-21.5 0-38.9-17.3-38.9-38.7V405.4c0-21.4 17.4-38.7 38.9-38.7h82.6l24.3-38.7c0-5.3 14.1-9.7 19.4-9.7h116.7c5.4 0 19.4 4.3 19.4 9.7l24.3 38.7h82.6c21.5 0 38.9 17.3 38.9 38.7v261.2c0.1 21.4-17.3 38.8-38.8 38.8z m-184.7-300c-69.8 0-126.4 56.3-126.4 125.8S441.7 657 511.5 657c69.8 0 126.4-56.3 126.4-125.8s-56.6-125.8-126.4-125.8z m0 212.9c-48.3 0-87.5-39-87.5-87.1 0-48.1 39.2-87.1 87.5-87.1s87.5 39 87.5 87.1c0 48.1-39.2 87.1-87.5 87.1z m0 0" fill="#ffffff" /></svg>