<?xml version="1.0" standalone="no"?><!DOCTYPE svg PUBLIC "-//W3C//DTD SVG 1.1//EN" "http://www.w3.org/Graphics/SVG/1.1/DTD/svg11.dtd"><svg class="icon" width="64px" height="64.00px" viewBox="0 0 1024 1024" version="1.1" xmlns="http://www.w3.org/2000/svg"><path d="M512.73678 961.51283c-246.986207 0-447.904193-200.936405-447.904193-447.904193 0-246.985184 200.919009-447.904193 447.904193-447.904193 246.967788 0 447.904193 200.919009 447.904193 447.904193C960.640973 760.576425 759.704568 961.51283 512.73678 961.51283zM512.73678 82.930781c-237.483786 0-430.677856 193.20328-430.677856 430.676833 0 237.4756 193.19407 430.677856 430.677856 430.677856 237.4756 0 430.677856-193.20328 430.677856-430.677856C943.414637 276.134061 750.211357 82.930781 512.73678 82.930781z" fill="#4b2f7a" /><path d="M701.901071 801.152563 512.73678 659.284461 323.57249 801.152563l75.708286-227.116671L229.231845 441.789938l208.476125 0 75.02881-215.725226 75.029834 215.725226 208.475102 0L626.192785 574.035892 701.901071 801.152563zM512.73678 637.748982l155.381883 116.536156-62.111616-186.354292 140.036383-108.914572-170.523745 0-62.781882-180.509167-62.781882 180.509167L279.431154 459.016275l140.03536 108.914572-62.111616 186.354292L512.73678 637.748982z" fill="#4b2f7a" /></svg>