<?xml version="1.0" standalone="no"?><!DOCTYPE svg PUBLIC "-//W3C//DTD SVG 1.1//EN" "http://www.w3.org/Graphics/SVG/1.1/DTD/svg11.dtd"><svg class="icon" width="200px" height="175.49px" viewBox="0 0 1167 1024" version="1.1" xmlns="http://www.w3.org/2000/svg"><path d="M441.696961 475.407048a514.319955 514.319955 0 0 1 142.774988 11.190999 372.901967 372.901967 0 0 1 141.910987 62.829995 232.34898 232.34898 0 0 1 59.125995 64.185994 169.395985 169.395985 0 0 1 23.493998 78.464993 180.052984 180.052984 0 0 1-35.466997 110.76399 300.361974 300.361974 0 0 1-90.519992 81.138993 502.263956 502.263956 0 0 1-270.696976 65.832995 461.775959 461.775959 0 0 1-175.279985-39.376997 268.967976 268.967976 0 0 1-113.60199-91.753992 163.059986 163.059986 0 0 1-26.209998-121.132989 208.113982 208.113982 0 0 1 60.771995-108.499991 355.044969 355.044969 0 0 1 92.988992-64.969994 505.184956 505.184956 0 0 1 190.832983-48.673996z m-15.429998 95.209992a221.732981 221.732981 0 0 0-63.856995 13.948999 198.979983 198.979983 0 0 0-106.60799 92.699991 152.814987 152.814987 0 0 0-17.157999 79.904993 144.626987 144.626987 0 0 0 37.319997 87.516993 171.535985 171.535985 0 0 0 64.021994 44.024996 215.272981 215.272981 0 0 0 172.809985-8.557999 190.791983 190.791983 0 0 0 95.499992-101.423991 146.354987 146.354987 0 0 0 2.714999-98.295992 148.699987 148.699987 0 0 0-40.321996-62.376994 192.107983 192.107983 0 0 0-144.338987-47.399996" fill="#ffffff" /><path d="M466.589959 690.186029a22.959998 22.959998 0 1 1-15.675999 31.023998 24.234998 24.234998 0 0 1 15.675999-31.023998zM364.137968 713.680027a57.603995 57.603995 0 0 1 44.436996 12.343999 52.789995 52.789995 0 0 1 18.926998 33.944997 60.648995 60.648995 0 0 1-19.132998 51.719996 64.844994 64.844994 0 0 1-36.207997 16.828998 57.603995 57.603995 0 0 1-42.337996-11.314999 52.583995 52.583995 0 0 1-19.832998-32.916997 59.413995 59.413995 0 0 1 15.840998-50.731995 64.803994 64.803994 0 0 1 38.265997-19.749999z m0 0" fill="#ffffff" /><path d="M812.994929 0.50509a16.457999 16.457999 0 0 1 4.648999-0.494h47.152996a37.483997 37.483997 0 0 0 12.342999 1.4c5.801999 1.563 11.891999 1.357 17.692998 3.003a97.925991 97.925991 0 0 1 14.935999 2.879999 150.592987 150.592987 0 0 1 29.129997 8.229 290.939974 290.939974 0 0 1 60.031995 25.879997c7.159999 3.004 12.672999 8.722999 19.461998 12.343999 4.115 1.934 6.912999 5.226 10.904 7.118a272.753976 272.753976 0 0 1 34.931996 30.036997c2.716 3.291 6.624999 5.307 9.176 8.763999 4.114 5.102 9.544999 8.969999 13.289998 14.359999 2.592 3.826 6.129999 6.869999 8.928 10.573999a322.498972 322.498972 0 0 1 30.241997 47.193996 225.60098 225.60098 0 0 1 13.330999 26.867998 323.649972 323.649972 0 0 1 13.001999 36.577996 330.233971 330.233971 0 0 1 12.754999 68.836994 342.98997 342.98997 0 0 1-8.229 100.929991 69.946994 69.946994 0 0 1-11.272999 28.800998 43.531996 43.531996 0 0 1-52.337995 13.289999 44.683996 44.683996 0 0 1-26.044998-43.366996 210.541981 210.541981 0 0 1 5.267-23.493998c0.864-6.911999 3.168-13.619999 3.455999-20.572999a230.41498 230.41498 0 0 0 0.412-63.281994 245.514978 245.514978 0 0 0-9.257999-40.569996c-2.551-6.417999-3.868-13.289999-6.747999-19.583999-5.102-10.903999-10.121999-21.848998-16.210999-32.257997-4.568-6.171999-7.694999-13.331999-12.796999-19.132998-4.114-4.69-7.569999-9.956999-11.479999-14.812999a255.595978 255.595978 0 0 0-31.392997-29.623997 248.724978 248.724978 0 0 0-38.923996-26.250998 90.519992 90.519992 0 0 0-17.362999-7.693999c-7.611999-3.827-16.005999-5.759999-23.781998-9.217-8.229999-2.51-17.075998-4.115-25.509998-6.582999a317.231972 317.231972 0 0 0-35.837996-3.086 159.685986 159.685986 0 0 0-31.969998 1.358 58.879995 58.879995 0 0 1-26.949997-3.004 37.236997 37.236997 0 0 1-15.471999-10.738999c-4.114-2.386-4.32-7.611999-6.705999-11.314999a26.291998 26.291998 0 0 1-4.32-15.922998 49.703996 49.703996 0 0 1 0.946-14.153999 43.202996 43.202996 0 0 1 35.795997-31.352997c4.773-1.77 9.998999 0 14.771999-1.934z m0 0" fill="#ffa21f" /><path d="M819.865928 158.340076c11.273999-0.906 22.711998 0 34.109997-0.412a58.796995 58.796995 0 0 1 14.194999 2.016 167.338985 167.338985 0 0 1 35.795997 9.833999 158.492986 158.492986 0 0 1 31.681997 18.020998c6.665999 3.745 12.343999 9.010999 18.597998 13.330999 8.846999 9.586999 17.033999 19.832998 25.221998 29.995998a172.399985 172.399985 0 0 1 29.377997 85.540992 233.994979 233.994979 0 0 1-0.658 32.709997 78.176993 78.176993 0 0 1-15.717998 43.655996 40.857996 40.857996 0 0 1-33.203997 10.534 38.305997 38.305997 0 0 1-24.933998-15.018999 39.992996 39.992996 0 0 1-7.529999-28.800998c1.152-6.254999 2.469-12.343999 3.743999-18.762998a93.523992 93.523992 0 0 0-41.144996-90.519992 99.489991 99.489991 0 0 0-38.553997-14.277999 264.441977 264.441977 0 0 0-27.731997 0.288 38.882997 38.882997 0 0 1-26.537998-10.696999 51.637995 51.637995 0 0 1-11.397999-20.119998 40.527996 40.527996 0 0 1 5.677999-29.254998 39.910996 39.910996 0 0 1 28.801998-17.897998z m0 0" fill="#ffa21f" /><path d="M457.00296 166.610075a109.32399 109.32399 0 0 1 77.147993 19.707999 87.721992 87.721992 0 0 1 31.887997 48.427995 119.856989 119.856989 0 0 1 2.057 39.211997 321.346972 321.346972 0 0 1-8.639999 40.815996 100.970991 100.970991 0 0 0-5.143 29.707998 7.817999 7.817999 0 0 0 7.241 7.199999 54.846995 54.846995 0 0 0 23.041998-6.335999c17.979998-8.229999 35.836997-16.746999 53.776995-25.016998a435.442962 435.442962 0 0 1 61.100995-20.901998 213.956981 213.956981 0 0 1 77.065993-6.254 91.671992 91.671992 0 0 1 56.656995 27.649998 104.961991 104.961991 0 0 1 24.686998 66.613994 181.039984 181.039984 0 0 1-11.931999 75.337993 46.411996 46.411996 0 0 0-5.966 31.146998 19.831998 19.831998 0 0 0 16.457999 12.795998 199.102983 199.102983 0 0 1 85.623992 34.809997 137.960988 137.960988 0 0 1 43.655996 53.282996 152.896987 152.896987 0 0 1 10.984999 88.997992 262.754977 262.754977 0 0 1-47.892995 110.14599 471.033959 471.033959 0 0 1-147.588987 130.759989 733.953935 733.953935 0 0 1-267.445977 90.067992 673.387941 673.387941 0 0 1-281.599975-17.650999 422.522963 422.522963 0 0 1-149.974987-78.464993 277.567976 277.567976 0 0 1-89.162992-128.043988 311.347973 311.347973 0 0 1-3.168-166.927986A568.67195 568.67195 0 0 1 93.069992 440.927051 802.00893 802.00893 0 0 1 255.349978 264.000067a617.182946 617.182946 0 0 1 90.272992-60.401995 299.621974 299.621974 0 0 1 111.09299-37.029997zM441.696961 475.200048a505.143956 505.143956 0 0 0-190.709983 48.881996A355.044969 355.044969 0 0 0 157.999986 589.050038a208.113982 208.113982 0 0 0-60.812995 108.499991 163.059986 163.059986 0 0 0 26.249998 121.132989 269.049976 269.049976 0 0 0 113.31499 91.589992 461.775959 461.775959 0 0 0 175.279985 39.375997 502.263956 502.263956 0 0 0 270.696976-65.832995 300.361974 300.361974 0 0 0 90.519992-81.138993 180.052984 180.052984 0 0 0 35.672997-110.76399 169.395985 169.395985 0 0 0-23.493998-78.463993 232.34898 232.34898 0 0 0-59.125995-64.186994 372.859967 372.859967 0 0 0-141.869987-62.829995 514.030955 514.030955 0 0 0-142.815988-11.190999" fill="#d81e06" /><path d="M426.267963 570.61704a192.107983 192.107983 0 0 1 144.337987 47.399996 148.699987 148.699987 0 0 1 40.322996 62.376994 146.354987 146.354987 0 0 1-2.715999 98.295992 190.791983 190.791983 0 0 1-95.539992 101.299991 215.272981 215.272981 0 0 1-172.809985 8.558999 171.617985 171.617985 0 0 1-64.022994-44.025996 144.626987 144.626987 0 0 1-37.195997-87.351993 152.814987 152.814987 0 0 1 17.116999-79.903993 198.979983 198.979983 0 0 1 106.64899-92.700991 221.732981 221.732981 0 0 1 63.857995-13.948999z m40.321996 119.569989a23.082998 23.082998 0 1 0 31.887997 13.535999 24.686998 24.686998 0 0 0-31.887997-13.536999zM364.137968 713.680027a64.803994 64.803994 0 0 0-38.264997 19.790999 59.413995 59.413995 0 0 0-15.840998 50.732995 52.583995 52.583995 0 0 0 19.831998 32.915997 57.603995 57.603995 0 0 0 42.337996 11.314999 64.844994 64.844994 0 0 0 36.208997-16.827998 60.648995 60.648995 0 0 0 19.131998-51.719996 52.789995 52.789995 0 0 0-18.926998-33.903997 57.603995 57.603995 0 0 0-44.436996-12.343999" fill="#2c2c2c" /></svg>