<?xml version="1.0" standalone="no"?><!DOCTYPE svg PUBLIC "-//W3C//DTD SVG 1.1//EN" "http://www.w3.org/Graphics/SVG/1.1/DTD/svg11.dtd"><svg class="icon" width="200px" height="200.00px" viewBox="0 0 1024 1024" version="1.1" xmlns="http://www.w3.org/2000/svg"><path d="M512 0C228.266667 0 0 228.266667 0 512s228.266667 512 512 512 512-228.266667 512-512S795.733333 0 512 0z" fill="#4e8bfd" /><path d="M332.8 356.266667c4.266667-10.666667 8.533333-23.466667 14.933333-34.133334 4.266667-10.666667 14.933333-14.933333 17.066667-12.8 2.133333 2.133333 2.133333 4.266667 2.133333 8.533334s-4.266667 14.933333 4.266667 19.2c8.533333 2.133333 12.8-12.8 14.933333-19.2l12.8-25.6c6.4-8.533333 19.2-14.933333 19.2-8.533334 2.133333 6.4-4.266667 25.6 2.133334 27.733334 12.8 6.4 23.466667-17.066667 29.866666-25.6 10.666667-14.933333 27.733333-36.266667 44.8-34.133334 8.533333 2.133333 4.266667 12.8 0 25.6-4.266667 8.533333-12.8 32 4.266667 29.866667 8.533333-2.133333 14.933333-12.8 21.333333-17.066667 10.666667-12.8 23.466667-23.466667 40.533334-27.733333 14.933333-2.133333 12.8 10.666667 6.4 19.2-4.266667 6.4-14.933333 32-8.533334 34.133333 6.4 2.133333 12.8-2.133333 21.333334-8.533333 10.666667-8.533333 23.466667-14.933333 38.4-19.2 8.533333 0 10.666667 2.133333 10.666666 6.4-2.133333 6.4-4.266667 14.933333-10.666666 19.2-8.533333 10.666667-17.066667 19.2-14.933334 25.6 2.133333 4.266667 4.266667 10.666667 6.4 17.066667 29.866667 91.733333-93.866667 132.266667-170.666666 130.133333-70.4 2.133333-155.733333-32-106.666667-130.133333zM277.333333 537.6c6.4 2.133333 10.666667 4.266667 17.066667 6.4l17.066667 2.133333c6.4 0 12.8 2.133333 19.2 4.266667 10.666667 2.133333 21.333333 6.4 27.733333 14.933333 4.266667 8.533333 6.4 17.066667 2.133333 27.733334-6.4 17.066667-19.2 29.866667-34.133333 38.4-21.333333 10.666667-44.8 14.933333-68.266667 14.933333-12.8 0-27.733333-2.133333-40.533333-4.266667-8.533333-2.133333-19.2-4.266667-27.733333-8.533333l12.8-40.533333h4.266666l8.533334 6.4 12.8 6.4c6.4 2.133333 10.666667 4.266667 17.066666 4.266666 6.4 2.133333 14.933333 2.133333 21.333334 2.133334 8.533333 0 17.066667 0 25.6-2.133334 4.266667-2.133333 8.533333-4.266667 10.666666-8.533333 2.133333-2.133333 0-6.4-2.133333-8.533333-4.266667-2.133333-10.666667-4.266667-14.933333-4.266667l-14.933334-2.133333c-6.4 0-12.8-2.133333-17.066666-4.266667-10.666667-2.133333-21.333333-8.533333-29.866667-17.066667-4.266667-8.533333-6.4-19.2-2.133333-27.733333 6.4-17.066667 19.2-29.866667 34.133333-36.266667 21.333333-10.666667 44.8-17.066667 70.4-14.933333 12.8 0 23.466667 0 36.266667 4.266667l25.6 6.4-19.2 36.266666H362.666667c-6.4-4.266667-14.933333-8.533333-23.466667-12.8-10.666667-2.133333-19.2-4.266667-29.866667-4.266666-8.533333 0-17.066667 2.133333-23.466666 4.266666s-10.666667 4.266667-10.666667 8.533334c-2.133333 2.133333 0 6.4 2.133333 8.533333zM366.933333 731.733333s-17.066667-4.266667 34.133334-228.266666c21.333333 4.266667 42.666667 6.4 61.866666 2.133333 0 0-74.666667 234.666667-96 226.133333zM569.6 644.266667l25.6-78.933334c2.133333-6.4 4.266667-12.8 4.266667-19.2V533.333333c0-4.266667-4.266667-6.4-6.4-8.533333-4.266667-2.133333-10.666667-2.133333-14.933334-2.133333s-10.666667 0-14.933333 2.133333l-19.2 6.4-34.133333 110.933333h-53.333334l42.666667-140.8c36.266667-12.8 72.533333-19.2 110.933333-19.2 17.066667-2.133333 34.133333 4.266667 46.933334 14.933334 8.533333 12.8 8.533333 29.866667 2.133333 42.666666l-34.133333 104.533334h-55.466667zM849.066667 537.6l-21.333334 66.133333c-32 27.733333-74.666667 42.666667-117.333333 40.533334-14.933333 0-32-4.266667-44.8-12.8-8.533333-10.666667-8.533333-23.466667-4.266667-34.133334 2.133333-10.666667 8.533333-19.2 17.066667-27.733333 8.533333-6.4 17.066667-12.8 27.733333-17.066667 12.8-4.266667 25.6-6.4 40.533334-8.533333 10.666667 0 21.333333-2.133333 32-2.133333l-10.666667 29.866666h-8.533333c-6.4 0-14.933333 2.133333-21.333334 2.133334-4.266667 2.133333-10.666667 4.266667-14.933333 6.4-4.266667 2.133333-6.4 6.4-8.533333 10.666666 0 2.133333-2.133333 4.266667-2.133334 8.533334 0 2.133333 2.133333 4.266667 2.133334 6.4 2.133333 2.133333 4.266667 4.266667 6.4 4.266666 4.266667 0 10.666667 2.133333 14.933333 2.133334 6.4 0 12.8-2.133333 17.066667-2.133334 6.4-2.133333 10.666667-4.266667 17.066666-8.533333l19.2-61.866667c2.133333-6.4 0-14.933333-6.4-17.066666-10.666667-4.266667-21.333333-6.4-32-4.266667-19.2 0-40.533333 4.266667-59.733333 10.666667l10.666667-36.266667c23.466667-4.266667 44.8-6.4 68.266666-6.4 21.333333-2.133333 44.8 2.133333 64 12.8 17.066667 8.533333 21.333333 23.466667 14.933334 38.4z" fill="#ffffff" /><path d="M629.333333 296.533333z" fill="#ffffff" /><path d="M439.466667 473.6c59.733333 2.133333 115.2-29.866667 117.333333-68.266667 4.266667-38.4-42.666667-64-100.266667-59.733333-53.333333 4.266667-98.133333 32-104.533333 64-4.266667 32 32 64 87.466667 64z m-42.666667-55.466667c4.266667-25.6 25.6-44.8 51.2-44.8 21.333333-2.133333 40.533333 12.8 42.666667 34.133334v8.533333c-4.266667 27.733333-27.733333 46.933333-55.466667 46.933333-21.333333 2.133333-38.4-14.933333-40.533333-36.266666 0-4.266667 0-6.4 2.133333-8.533334z" fill="#4e8bfd" /><path d="M424.533333 441.6c10.666667 0 19.2-8.533333 19.2-17.066667 2.133333-6.4-4.266667-14.933333-10.666666-14.933333 0 2.133333 0 0-2.133334 0-8.533333 0-14.933333 8.533333-17.066666 17.066667-2.133333 6.4 4.266667 14.933333 10.666666 14.933333zM448 416c2.133333 0 4.266667-2.133333 6.4-4.266667 0-2.133333 0-4.266667-4.266667-4.266666-2.133333 0-4.266667 2.133333-6.4 4.266666 0 2.133333 0 4.266667 4.266667 4.266667z" fill="#4e8bfd" /></svg>