<?xml version="1.0" standalone="no"?><!DOCTYPE svg PUBLIC "-//W3C//DTD SVG 1.1//EN" "http://www.w3.org/Graphics/SVG/1.1/DTD/svg11.dtd"><svg class="icon" width="64px" height="64.00px" viewBox="0 0 1024 1024" version="1.1" xmlns="http://www.w3.org/2000/svg"><path d="M511.995 1024c282.76 0 511.995-229.235 511.995-512.005C1023.99 229.22 794.754 0.005 511.995 0.005 229.22 0.01 0 229.23 0 511.995 0 794.765 229.225 1024 511.995 1024z m0-895.991c212.068 0 383.996 171.918 383.996 383.986C895.991 724.084 724.063 896 511.995 896c-212.084 0-383.996-171.917-383.996-384.006 0-212.068 171.907-383.986 383.996-383.986zM377.069 412.233l-90.51 90.52L467.573 683.76l90.52-90.5z m361.023 89.512l-90.516-90.5-181.02 181.005 90.52 90.52z m-1.004-89.512c-24.995-24.986-65.52-24.986-90.515 0-24.986 24.995-24.986 65.52 0 90.52 24.995 24.975 65.52 24.975 90.515 0 24.996-25 24.996-65.525 0-90.52zM557.076 592.25c-25-25-65.525-25-90.52 0-24.991 24.996-24.991 65.525 0 90.52 24.995 24.981 65.52 24.981 90.52 0 24.985-24.995 24.985-65.524 0-90.52zM286.558 412.233c-24.985 24.995-24.985 65.52 0 90.52 24.996 24.975 65.515 24.975 90.51 0 24.996-25 24.996-65.525 0-90.52-24.995-24.986-65.514-24.986-90.51 0z" fill="#8a8a8a" /></svg>