<?xml version="1.0" standalone="no"?><!DOCTYPE svg PUBLIC "-//W3C//DTD SVG 1.1//EN" "http://www.w3.org/Graphics/SVG/1.1/DTD/svg11.dtd"><svg class="icon" width="64px" height="64.00px" viewBox="0 0 1024 1024" version="1.1" xmlns="http://www.w3.org/2000/svg"><path d="M698.810811 408.216216m-34.594595 0a34.594595 34.594595 0 1 0 69.189189 0 34.594595 34.594595 0 1 0-69.189189 0Z" fill="#306885" /><path d="M622.702703 456.648649a34.594595 34.594595 0 1 0 34.594594 34.594594 34.594595 34.594595 0 0 0-34.594594-34.594594z" fill="#306885" /><path d="M781.837838 0H242.162162A242.162162 242.162162 0 0 0 0 242.162162v539.675676a242.162162 242.162162 0 0 0 242.162162 242.162162h539.675676a242.162162 242.162162 0 0 0 242.162162-242.162162V242.162162a242.162162 242.162162 0 0 0-242.162162-242.162162zM664.216216 733.405405L588.108108 643.459459H435.891892l-76.108108 89.945946c-76.108108 83.027027-207.567568 55.351351-207.567568-103.783783s41.513514-276.756757 96.864865-339.027027 159.135135-41.513514 200.648649 0 62.27027 20.756757 62.27027 20.756756 41.513514-6.918919 62.27027-20.756756 145.297297-62.27027 200.648649 0 96.864865 200.648649 96.864865 339.027027-138.378378 179.891892-207.567568 103.783783z" fill="#306885" /><path d="M435.891892 428.972973h-41.513514v-41.513514a27.675676 27.675676 0 1 0-62.27027 0v41.513514h-41.513513a27.675676 27.675676 0 1 0 0 62.27027h41.513513v41.513514a27.675676 27.675676 0 1 0 62.27027 0v-41.513514h41.513514a27.675676 27.675676 0 1 0 0-62.27027z" fill="#306885" /></svg>