<?xml version="1.0" standalone="no"?><!DOCTYPE svg PUBLIC "-//W3C//DTD SVG 1.1//EN" "http://www.w3.org/Graphics/SVG/1.1/DTD/svg11.dtd"><svg class="icon" width="64px" height="64.00px" viewBox="0 0 1024 1024" version="1.1" xmlns="http://www.w3.org/2000/svg"><path d="M512 512m-512 0a512 512 0 1 0 1024 0 512 512 0 1 0-1024 0Z" fill="#d9d300" /><path d="M737.152 256v33.6h-67.584V256H354.368v33.6H286.784V256c-17.664 0.192-44.992 16.384-44.992 37.184v451.84c0 20.864 16.064 37.056 45.056 37.184v-33.6h67.584v33.6h315.264v-33.6h67.584v33.6c17.728-0.192 45.056-16.32 45.056-37.184v-451.84c-0.128-20.8-27.456-36.992-45.184-37.184z m-382.784 425.472H286.784v-67.2h67.584v67.2z m0-134.4H286.784v-67.2h67.584v67.2z m0-134.336H286.784V345.6h67.584v67.136z m78.784 215.36V415.488l183.68 106.304-183.68 106.304z m304 53.376h-67.584v-67.2h67.584v67.2z m0-134.4h-67.584v-67.2h67.584v67.2z m0-134.336h-67.584V345.6h67.584v67.136z" fill="#ffffff" /></svg>