<?xml version="1.0" standalone="no"?><!DOCTYPE svg PUBLIC "-//W3C//DTD SVG 1.1//EN" "http://www.w3.org/Graphics/SVG/1.1/DTD/svg11.dtd"><svg class="icon" width="64px" height="64.00px" viewBox="0 0 1024 1024" version="1.1" xmlns="http://www.w3.org/2000/svg"><path d="M1018.176 436.928c-22.72-98.688-109.568-108.864-160.64-92.992-35.2-164.608-207.808-161.344-291.072-59.264-19.904-41.728-28.48-48.64-29.824-80 25.28 1.6 34.048 6.016 58.24 13.824 9.344-24.576 9.344-64.576 0-89.216-24.192 7.872-32.96 12.16-58.24 13.952 1.344-31.424 4.928-35.84 11.2-65.984A72.512 72.512 0 0 0 512 68.544c-12.992 0-25.984 2.88-35.904 8.704 6.272 30.208 9.792 34.56 11.2 65.984-25.28-1.792-32.64-6.08-56.832-13.888-9.344 24.64-9.344 64.64 0 89.216 24.256-7.808 31.552-12.16 56.832-13.824-1.344 31.36-9.92 38.272-29.888 80-83.2-102.208-255.872-105.408-291.008 59.2C115.2 328.064 28.544 338.24 5.824 436.928-24.512 568.448 96 631.68 175.296 764.096c32.768 54.784 38.528 112.576 42.496 151.296 2.816 27.584 12.736 40 38.976 40h510.336c26.24 0 36.096-12.416 38.912-40 4.032-38.72 9.856-96.512 42.496-151.296 79.424-132.416 199.936-195.648 169.664-327.168M252.672 798.272c-48.768-151.04-165.312-235.264-147.52-322.752 7.104-34.688 28.16-56.448 60.48-57.6 22.272 113.024 127.104 203.648 165.312 355.84-33.6 7.296-48.576 12.992-78.272 24.512m137.408-35.328c-20.352-163.264-142.592-263.296-89.6-382.272 29.248-65.664 100.48-64.064 140.8-32.384-35.904 139.776 33.28 238.336 37.504 403.712-21.824 0.64-61.76 6.848-88.704 10.944m155.008-10.944c4.224-165.376 73.344-263.936 37.44-403.712 40.384-31.68 111.68-33.344 140.864 32.384 52.992 118.912-69.312 219.008-89.536 382.272-26.944-4.096-66.88-10.304-88.768-10.944m226.112 46.272c-29.632-11.52-44.608-17.216-78.336-24.576 38.4-152.064 143.104-242.816 165.44-355.84 32.32 1.216 53.312 22.912 60.48 57.6 17.856 87.552-98.752 171.776-147.584 322.816m0 0" fill="#d9d22b" /></svg>