<?xml version="1.0" standalone="no"?><!DOCTYPE svg PUBLIC "-//W3C//DTD SVG 1.1//EN" "http://www.w3.org/Graphics/SVG/1.1/DTD/svg11.dtd"><svg class="icon" width="64px" height="64.00px" viewBox="0 0 1024 1024" version="1.1" xmlns="http://www.w3.org/2000/svg"><path d="M631.893333 614.506667a42.666667 42.666667 0 0 0 42.666667-42.666667V393.066667a42.666667 42.666667 0 0 0-42.666667-42.666667h-309.333333a42.666667 42.666667 0 0 0-42.666667 42.666667v178.773333a42.666667 42.666667 0 0 0 42.666667 42.666667zM361.493333 372.266667a44.16 44.16 0 1 1-44.053333 43.733333 44.16 44.16 0 0 1 44.053333-43.733333z m-54.506666 206.933333c15.573333-20.053333 44.266667-48.426667 81.6-47.573333 57.386667 1.493333 58.133333 30.186667 91.413333 28.693333s59.52-94.826667 106.666667-94.506667 72.853333 79.466667 72.853333 79.466667a41.92 41.92 0 0 1-12.16 34.88 49.386667 49.386667 0 0 1-41.706667 13.546667H336a75.84 75.84 0 0 1-9.6-1.6 34.773333 34.773333 0 0 1-19.413333-12.906667z" fill="#1296db" /><path d="M512 0a512 512 0 1 0 512 512A512 512 0 0 0 512 0zM259.093333 571.84V393.066667a64 64 0 0 1 64-64h309.333334a64 64 0 0 1 64 64v178.773333a64 64 0 0 1-64 64h-309.333334a64 64 0 0 1-64-64z m505.706667 49.493333a73.706667 73.706667 0 0 1-73.6 73.6H316.906667a10.666667 10.666667 0 0 1 0-21.333333h374.4a52.373333 52.373333 0 0 0 52.266666-52.266667v-222.933333a10.666667 10.666667 0 0 1 21.333334 0z" fill="#1296db" /></svg>