<?xml version="1.0" standalone="no"?><!DOCTYPE svg PUBLIC "-//W3C//DTD SVG 1.1//EN" "http://www.w3.org/Graphics/SVG/1.1/DTD/svg11.dtd"><svg class="icon" width="64px" height="64.00px" viewBox="0 0 1024 1024" version="1.1" xmlns="http://www.w3.org/2000/svg"><path d="M915.5 423.4v367.7c-26-51.2-97.2-166.2-211.3-166.2-83.4 0-112.5 100.8-183.3 100.8-73.1 0-74.6-279.9-209.9-279.9-119.4 0-178.9 229.4-201.5 346.8V210.7c0-30.9 25.1-56 56-56h694.1c30.9 0 56 25.1 56 56v67.2c0 29 44.8 29.7 44.8 0v-78.4c0-49.5-40.1-89.6-89.6-89.6H154.3c-49.5 0-89.6 40.1-89.6 89.6v626.9c0 49.5 40.1 89.5 89.6 89.5h716.4c49.5 0 89.6-40.1 89.6-89.5v-403c0-29.3-44.8-30.4-44.8 0z m-56 447.8h-694c-11.9 0-22.9-3.7-32-10.1 10-61.3 67.6-381.8 177.5-381.8 105.4 0 99.8 279.9 209.9 279.9 85.8 0 119.5-100.7 183.3-100.7 105 0 176.1 133.1 201.2 188.7-10.1 14.5-26.9 24-45.9 24z" fill="#3b801c" /><path d="M557.3 367.5c0 61.8 50.1 111.9 111.9 111.9s111.9-50.1 111.9-111.9-50.1-112-111.9-112-111.9 50.2-111.9 112z m190.3 0c0 43.3-35.1 78.4-78.4 78.4s-78.4-35.1-78.4-78.4 35.1-78.4 78.4-78.4 78.4 35.1 78.4 78.4z" fill="#3b801c" /></svg>