<?xml version="1.0" standalone="no"?><!DOCTYPE svg PUBLIC "-//W3C//DTD SVG 1.1//EN" "http://www.w3.org/Graphics/SVG/1.1/DTD/svg11.dtd"><svg class="icon" width="64px" height="64.00px" viewBox="0 0 1024 1024" version="1.1" xmlns="http://www.w3.org/2000/svg"><path d="M512 289.5c-86.6 0-156.8 70.8-156.8 158.1S425.4 605.7 512 605.7s156.7-70.8 156.7-158.1S598.6 289.5 512 289.5z m0.2 255h-0.1-0.1c-39.5 0-101.1-6.7-101.1-21.1 0-14.4 1-46.8 37.2-54.8 20.2-4.5 30.1-6.6 39.2-7.6v-20.9c-10.3-11.2-14.5-26.3-14.5-26.3-8.2 0-12.2-17.6-13.7-26.5v-0.1-0.2c0-0.2-0.1-0.4-0.1-0.6 0-2.3 1.8-4.2 4.1-4.2h3.5v-27.8c0-22.2 35.1-29.2 45.4-29.2 10.3 0 45.4 7 45.4 29.2v27.8h3.5c2.2 0.1 4.1 1.9 4.1 4.2 0 0.2 0 0.5-0.1 0.7h0.1c-1.5 8.9-5.5 26.7-13.8 26.7 0 0-3.6 13.1-12.4 24v23.5c8.6 1.1 18.4 3.2 37.2 7.4 36 8.1 37 40.4 37 54.8 0.1 14.4-61.3 21-100.8 21z" fill="#4a9429" /><path d="M512 64C264.6 64 64 264.6 64 512s200.6 448 448 448 448-200.6 448-448S759.4 64 512 64z m187.1 495.8l-2.7 4c-3.3 5.4-6.8 10.6-10.6 15.6L537.4 797.9l-0.1-0.1c-5.4 8.3-14.7 13.8-25.3 13.8-10.6 0-19.9-5.5-25.3-13.8v0.1L338.2 579.4c-3.8-5-7.3-10.2-10.6-15.6l-2.7-4h0.3c-19.4-32.8-30.6-71.2-30.6-112.2 0-121.1 97.3-219.3 217.4-219.3 120.1 0 217.4 98.2 217.4 219.3 0 41-11.2 79.4-30.6 112.2h0.3z" fill="#4a9429" /></svg>