<?xml version="1.0" standalone="no"?><!DOCTYPE svg PUBLIC "-//W3C//DTD SVG 1.1//EN" "http://www.w3.org/Graphics/SVG/1.1/DTD/svg11.dtd"><svg class="icon" width="64px" height="64.00px" viewBox="0 0 1024 1024" version="1.1" xmlns="http://www.w3.org/2000/svg"><path d="M655.665 34.948l-297.805-0.617c-1.819-0.131-3.942-0.207-6.083-0.207l-160.409 0.002c-38.4-0.068-69.463 31.063-69.463 69.463v818.948c0 38.4 31.132 69.463 69.463 69.463h632.023c38.332 0 69.463-31.132 69.463-69.463v-648.96l-237.188-238.628zM655.665 93.92l178.012 179.657h-118.697c-32.792-0.156-59.315-26.774-59.315-59.588 0-0.097 0-0.193 0.001-0.29v-119.711zM329.47 752.548c-16.423-0.116-29.692-13.457-29.692-29.897 0-0.024 0-0.049 0-0.073 0-16.453 13.303-29.893 29.692-29.893h355.817c16.531 0 29.932 13.401 29.932 29.932s-13.401 29.932-29.932 29.932h-355.885zM685.288 513.028c16.388 0 29.692 13.44 29.692 29.965 0 16.457-13.303 29.897-29.692 29.897h-355.885c-16.393-0.156-29.623-13.48-29.623-29.896 0 0 0-0.001 0-0.001 0-16.457 13.303-29.965 29.692-29.965h355.817z" fill="#13227a" /></svg>