<?xml version="1.0" standalone="no"?><!DOCTYPE svg PUBLIC "-//W3C//DTD SVG 1.1//EN" "http://www.w3.org/Graphics/SVG/1.1/DTD/svg11.dtd"><svg class="icon" width="64px" height="64.00px" viewBox="0 0 1024 1024" version="1.1" xmlns="http://www.w3.org/2000/svg"><path d="M308.9408 451.464533l409.6 0 0 34.133333-409.6 0 0-34.133333ZM308.9408 587.9808l409.6 0 0 34.133333-409.6 0 0-34.133333ZM308.9408 724.548267l273.066667 0 0 34.133333-273.066667 0 0-34.133333ZM614.6048 110.1312c-8.1408-48.401067-50.141867-85.333333-100.864-85.333333-50.722133 0-92.7232 36.932267-100.864 85.333333L104.1408 110.1312l0 887.466667 819.2 0 0-887.466667L614.6048 110.1312zM445.474133 188.484267 445.474133 168.635733 445.474133 127.197867c0-37.649067 30.634667-68.266667 68.266667-68.266667 37.666133 0 68.266667 30.6176 68.266667 68.266667l0 41.454933 0 19.848533 17.271467 9.813333c33.536 19.080533 59.2384 48.059733 73.966933 82.4832L354.269867 280.797867c14.7456-34.423467 40.448-63.402667 73.966933-82.4832L445.474133 188.484267zM889.207467 963.447467l-750.933333 0 0-819.2 273.066667 0 0 24.388267c-53.282133 30.327467-91.904 83.5072-102.4 146.2784l409.6 0c-10.461867-62.788267-49.1008-115.950933-102.4-146.2784L616.1408 144.264533l273.066667 0L889.207467 963.447467z" fill="#13227a" /></svg>