<?xml version="1.0" standalone="no"?><!DOCTYPE svg PUBLIC "-//W3C//DTD SVG 1.1//EN" "http://www.w3.org/Graphics/SVG/1.1/DTD/svg11.dtd"><svg class="icon" width="64px" height="64.00px" viewBox="0 0 1024 1024" version="1.1" xmlns="http://www.w3.org/2000/svg"><path d="M341.33248 682.662912l213.33696 0 0 42.667392-213.33696 0 0-42.667392Z" fill="#387eb8" /><path d="M341.33248 575.999552l341.328896 0 0 42.667392-341.328896 0 0-42.667392Z" fill="#387eb8" /><path d="M341.33248 469.336192l341.328896 0 0 42.667392-341.328896 0 0-42.667392Z" fill="#387eb8" /><path d="M341.33248 362.662592l341.328896 0 0 42.677631-341.328896 0 0-42.677631Z" fill="#387eb8" /><path d="M810.662528 170.664448c0 241.781888 0 483.553536 0 725.335424-199.114496 0-398.218752 0-597.333248 0 0-241.781888 0-483.553536 0-725.335424 42.667392 0 85.334784 0 128.002176 0 0-14.222464 0-28.444928 0-42.667392 28.444928 0 56.889856 0 85.324545 0 35.161945-70.31365 135.517862-70.31365 170.669568 0 28.444928 0 56.889856 0 85.334784 0 0 14.222464 0 28.444928 0 42.667392C725.328768 170.664448 767.99616 170.664448 810.662528 170.664448zM767.99616 853.33248l0-640.00064-85.334784 0 0 42.667392-341.328896 0 0-42.667392-85.334784 0 0 640.00064L767.99616 853.33248zM639.993984 213.33184c0-14.222464 0-28.444928 0-42.667392-23.007831 0-46.0259 0-69.033731 0-3.931912-7.863825-7.863825-15.71741-11.795737-23.581234-19.434296-38.878831-74.900881-38.878831-94.335177 0-3.931912 7.863825-7.863825 15.71741-11.795737 23.581234-8.785367 0-17.570733 0-26.376578 0-14.212225 0-28.434689 0-42.657153 0 0 14.222464 0 28.444928 0 42.667392C469.334656 213.33184 554.66944 213.33184 639.993984 213.33184z" fill="#387eb8" /></svg>