<?xml version="1.0" standalone="no"?><!DOCTYPE svg PUBLIC "-//W3C//DTD SVG 1.1//EN" "http://www.w3.org/Graphics/SVG/1.1/DTD/svg11.dtd"><svg class="icon" width="200px" height="200.00px" viewBox="0 0 1024 1024" version="1.1" xmlns="http://www.w3.org/2000/svg"><path d="M512 0C229.236364 0 0 229.236364 0 512s229.236364 512 512 512 512-229.236364 512-512S794.763636 0 512 0z m267.636364 621.381818c0 37.236364-29.090909 68.654545-67.490909 68.654546H539.927273l-102.4 62.836363c-3.490909 2.327273-8.145455 3.490909-12.8 3.490909-2.327273 0-5.818182 0-8.145455-1.163636-6.981818-2.327273-12.8-8.145455-16.290909-15.127273l-20.945454-50.036363h-68.654546c-37.236364 0-67.490909-31.418182-67.490909-68.654546V347.927273c0-37.236364 29.090909-68.654545 67.490909-68.654546h401.454546c37.236364 0 67.490909 31.418182 67.490909 68.654546v273.454545z" fill="#13c287" /><path d="M712.145455 324.654545H311.854545c-12.8 0-22.109091 10.472727-22.10909 23.272728v273.454545c0 12.8 10.472727 23.272727 22.10909 23.272727h98.909091l23.272728 58.181819 94.254545-58.181819h185.018182c12.8 0 22.109091-10.472727 22.109091-23.272727V347.927273c0-12.8-10.472727-23.272727-23.272727-23.272728z m-324.654546 221.09091c-16.290909 0-30.254545-12.8-31.418182-30.254546v-1.163636c0-16.290909 12.8-30.254545 30.254546-30.254546 16.290909 0 30.254545 12.8 31.418182 30.254546 0 17.454545-13.963636 31.418182-30.254546 31.418182z m125.672727 0c-16.290909 0-30.254545-12.8-31.418181-29.09091v-1.163636c0-16.290909 12.8-30.254545 29.090909-30.254545s30.254545 12.8 31.418181 29.090909c1.163636 17.454545-11.636364 31.418182-29.090909 31.418182z m126.836364 0c-16.290909 0-30.254545-12.8-31.418182-30.254546v-1.163636c0-16.290909 12.8-30.254545 30.254546-30.254546 16.290909 0 30.254545 12.8 31.418181 30.254546-1.163636 17.454545-13.963636 31.418182-30.254545 31.418182z" fill="#13c287" /><path d="M712.145455 279.272727H311.854545c-37.236364 0-67.490909 31.418182-67.490909 68.654546v273.454545c0 37.236364 29.090909 68.654545 67.490909 68.654546h68.654546l20.945454 50.036363c2.327273 6.981818 8.145455 12.8 16.29091 15.127273 1.163636 1.163636 3.490909 1.163636 6.981818 1.163636 4.654545 0 9.309091-1.163636 12.8-3.490909l102.4-62.836363h172.218182c37.236364 0 67.490909-31.418182 67.490909-68.654546V347.927273c0-37.236364-29.090909-68.654545-67.490909-68.654546z m23.272727 342.109091c0 12.8-10.472727 23.272727-22.109091 23.272727H528.290909l-94.254545 58.181819-23.272728-58.181819h-98.909091c-12.8 0-22.109091-10.472727-22.10909-23.272727V347.927273c0-12.8 10.472727-23.272727 22.10909-23.272728h401.454546c12.8 0 22.109091 10.472727 22.109091 23.272728v273.454545z" fill="#ffffff" /><path d="M386.327273 485.236364c-16.290909 0-30.254545 13.963636-30.254546 30.254545v1.163636c0 16.290909 13.963636 30.254545 31.418182 30.254546s30.254545-13.963636 30.254546-31.418182c-1.163636-17.454545-15.127273-31.418182-31.418182-30.254545zM637.672727 485.236364c-16.290909 0-30.254545 13.963636-30.254545 30.254545v1.163636c0 16.290909 13.963636 30.254545 31.418182 30.254546s30.254545-13.963636 30.254545-31.418182c0-17.454545-13.963636-31.418182-31.418182-30.254545zM512 485.236364c-16.290909 0-30.254545 13.963636-29.090909 30.254545v1.163636c0 16.290909 13.963636 30.254545 31.418182 29.09091 16.290909 0 30.254545-13.963636 29.090909-31.418182-1.163636-16.290909-15.127273-30.254545-31.418182-29.090909z" fill="#ffffff" /></svg>