<?xml version="1.0" standalone="no"?><!DOCTYPE svg PUBLIC "-//W3C//DTD SVG 1.1//EN" "http://www.w3.org/Graphics/SVG/1.1/DTD/svg11.dtd"><svg class="icon" width="200px" height="184.67px" viewBox="0 0 1109 1024" version="1.1" xmlns="http://www.w3.org/2000/svg"><path d="M536.661333 499.712a72.874667 72.874667 0 0 0 71.936-74.069333 73.216 73.216 0 0 0-71.936-74.069334 72.874667 72.874667 0 0 0-72.021333 74.069334c0 40.96 32.085333 74.069333 72.021333 74.069333z m245.845334 0a72.874667 72.874667 0 0 0 71.936-74.069333 76.458667 76.458667 0 0 0-21.504-53.077334 70.826667 70.826667 0 0 0-50.432-20.992 72.874667 72.874667 0 0 0-71.936 74.069334c0 40.96 32.512 74.069333 71.936 74.069333z"  /><path d="M905.984 0.085333H166.826667C75.349333 0.085333 0.768 76.288 0.768 170.325333v477.525334c0 96.682667 77.738667 178.602667 169.216 178.602666h169.130667c45.738667 47.786667 154.453333 160.256 155.477333 161.28a58.026667 58.026667 0 0 0 42.069333 17.92c15.701333 0 31.573333-6.826667 43.093334-18.944l1.536-1.621333c27.306667-30.464 95.061333-106.069333 147.626666-158.122667h173.909334c91.904 0 169.130667-81.92 169.130666-178.602666V170.325333C1072.469333 76.288 997.376 0 905.984 0zM87.466667 170.325333c0-46.250667 35.754667-84.053333 79.872-84.053333h738.645333c44.117333 0 79.872 37.802667 79.872 84.053333v477.525334c0 48.810667-38.4 91.904-82.517333 91.904H693.76l-12.629333 12.117333c-48.384 46.762667-112.981333 117.674667-145.578667 153.941333-43.008-44.117333-122.88-127.146667-146.517333-152.405333l-12.629334-13.653333h-206.506666c-44.117333 0-82.432-43.093333-82.432-91.904V170.325333z"  /><path d="M290.218667 499.712a72.874667 72.874667 0 0 0 72.021333-74.069333 73.216 73.216 0 0 0-72.021333-74.069334 73.216 73.216 0 0 0-71.936 74.069334c0 40.96 32.085333 74.069333 71.936 74.069333z"  /></svg>