<?xml version="1.0" standalone="no"?><!DOCTYPE svg PUBLIC "-//W3C//DTD SVG 1.1//EN" "http://www.w3.org/Graphics/SVG/1.1/DTD/svg11.dtd"><svg class="icon" width="64px" height="63.94px" viewBox="0 0 1025 1024" version="1.1" xmlns="http://www.w3.org/2000/svg"><path d="M512 512m-512 0a512 512 0 1 0 1024 0 512 512 0 1 0-1024 0Z" fill="#9fc714" /><path d="M804.571429 303.542857c-3.657143-5.485714-10.971429-9.142857-20.114286-9.142857H385.828571c-9.142857 0-18.285714 9.142857-18.285714 18.285714s9.142857 18.285714 18.285714 18.285715h382.171429l-73.142857 239.542857-270.628572 25.6c-10.971429 1.828571-18.285714 9.142857-18.285714 20.114285 1.828571 9.142857 9.142857 16.457143 18.285714 16.457143h1.828572l279.771428-25.6c9.142857-1.828571 18.285714-7.314286 20.114286-16.457143L806.4 325.485714c3.657143-9.142857 1.828571-16.457143-1.828571-21.942857z" fill="#ffffff" /><path d="M766.171429 661.942857H396.8l-71.314286-402.285714c-3.657143-10.971429-12.8-20.114286-23.771428-20.114286h-58.514286c-9.142857 0-18.285714 9.142857-18.285714 18.285714s9.142857 18.285714 18.285714 18.285715h47.542857l71.314286 402.285714c1.828571 10.971429 12.8 20.114286 23.771428 20.114286h378.514286c9.142857 0 18.285714-9.142857 18.285714-18.285715 0-12.8-7.314286-18.285714-16.457142-18.285714zM363.885714 760.685714c0 21.942857 18.285714 40.228571 40.228572 40.228572 21.942857 0 40.228571-18.285714 40.228571-40.228572s-18.285714-40.228571-40.228571-40.228571c-21.942857 0-40.228571 18.285714-40.228572 40.228571zM643.657143 760.685714c0 21.942857 18.285714 40.228571 40.228571 40.228572s40.228571-18.285714 40.228572-40.228572-18.285714-40.228571-40.228572-40.228571c-21.942857 0-40.228571 18.285714-40.228571 40.228571z" fill="#ffffff" /></svg>