<?xml version="1.0" standalone="no"?><!DOCTYPE svg PUBLIC "-//W3C//DTD SVG 1.1//EN" "http://www.w3.org/Graphics/SVG/1.1/DTD/svg11.dtd"><svg class="icon" width="64px" height="64.00px" viewBox="0 0 1024 1024" version="1.1" xmlns="http://www.w3.org/2000/svg"><path d="M857.6512 407.790933l-167.901867 0c12.219733-28.194133 26.248533-101.051733 18.039467-167.3216-6.485333-52.906667-37.546667-93.457067-83.080533-108.765867-33.757867-11.349333-69.341867-5.853867-88.5248 13.602133-22.852267 23.176533-33.5872 66.8672-44.936533 113.066667-7.424 30.242133-15.104 61.559467-24.661333 77.6704-27.5968 46.592-85.3504 67.857067-96.9728 71.7312l-79.633067 0c-15.650133 0-28.381867 12.629333-28.381867 28.177067l0 394.666667c0 15.598933 12.731733 28.194133 28.381867 28.194133l76.765867 0c23.7056 12.765867 112.059733 56.388267 214.340267 56.388267l191.4368 0c31.522133 0 85.794133-12.117333 106.1376-45.568 20.48-33.877333 63.761067-342.3744 63.761067-376.576C942.421333 445.952 896.034133 407.790933 857.6512 407.790933zM830.0032 840.567467c-4.2496 7.0656-32.324267 18.244267-57.480533 18.244267L581.085867 858.811733c-101.376 0-190.7712-56.3712-191.6416-56.3712l-0.017067 0c-4.266667 0-8.977067 0-14.301867 0l-56.7808 0L318.344533 464.162133l56.746667 0c2.321067 0 4.386133-0.785067 6.536533-1.3312 0.443733-0.1024 0.8704 0.017067 1.3312-0.1024 0.2048-0.0512 0.768-0.2048 1.501867-0.443733 0.750933-0.273067 1.536-0.392533 2.235733-0.733867 17.2544-5.666133 90.914133-32.887467 128.750933-96.9216 13.738667-23.261867 22.084267-57.070933 30.890667-92.842667 8.192-33.365333 18.3808-74.820267 30.225067-86.869333 2.7136-2.304 15.991467-5.239467 32.6144 1.28 13.6192 5.341867 37.2224 20.394667 42.274133 61.371733 11.1616 90.299733-27.8528 176.264533-28.228267 177.134933-4.061867 8.738133-3.310933 18.6368 1.8944 26.743467 5.205333 8.055467 14.1824 12.6976 23.8592 12.6976l208.622933 0c7.68 0 28.023467 13.2608 28.023467 28.859733C885.674667 530.619733 841.864533 813.8752 830.0032 840.567467zM98.645333 860.7744l136.0896 0L234.734933 425.2672 98.645333 425.2672 98.645333 860.7744z" fill="#e85744" /></svg>