<?xml version="1.0" standalone="no"?><!DOCTYPE svg PUBLIC "-//W3C//DTD SVG 1.1//EN" "http://www.w3.org/Graphics/SVG/1.1/DTD/svg11.dtd"><svg class="icon" width="200px" height="200.00px" viewBox="0 0 1024 1024" version="1.1" xmlns="http://www.w3.org/2000/svg"><path d="M 512.002 2 C 230.385 2 2 230.354 2 512 s 228.283 510 510.002 510 C 793.619 1022 1022 793.646 1022 512 S 793.717 2 512.002 2 Z M 351.305 741.55 h -45.754 c -30.306 0 -56.227 -29.759 -56.227 -60.015 v -191.1 c 0 -31.153 26.914 -54.909 56.227 -54.909 h 45.754 V 741.55 Z m 402.639 -251.215 l -58.718 207.686 c -6.581 24.056 -28.412 43.529 -53.031 43.529 h -265.37 V 430.221 c 59.511 -9.09 101.981 -56.703 101.981 -118.012 v -14.07 c 0 -29.161 24.322 -49.63 54.428 -49.63 h 1.494 c 23.326 0 44.062 12.576 51.538 34.664 l 3.593 8.566 c 10.762 31.651 12.158 65.792 4.083 98.24 l -1.791 6.898 c -0.501 4.906 -2.892 13.074 -6.883 21.565 h 116.14 c 17.047 0 33.095 8.592 43.263 22.264 c 10.567 14.292 14.058 32.546 9.273 49.629 Z m 0 0" fill="#fa6906" /></svg>