<?xml version="1.0" standalone="no"?><!DOCTYPE svg PUBLIC "-//W3C//DTD SVG 1.1//EN" "http://www.w3.org/Graphics/SVG/1.1/DTD/svg11.dtd"><svg class="icon" width="200px" height="199.80px" viewBox="0 0 1025 1024" version="1.1" xmlns="http://www.w3.org/2000/svg"><path d="M940.013972 101.064027"  /><path d="M982.010971 201.105024"  /><path d="M949.244894 876.227153c0 39.656249-33.343554 73.02031-73.013474 73.02031l-732.581619 1.196289c-39.662889 0-71.817771-32.155272-71.817771-71.811326l1.188477-732.591971c0-39.669725 33.357421-73.02031 73.027732-73.02031l401.604871 0L547.653109 3.0e-05 146.048238 3.0e-05C66.714842 3.0e-05 0.000195 81.076981 0.000195 160.399439l0 718.233182c0 79.319138 64.316209 143.635347 143.649605 143.635347L861.869115 1022.267969c79.325974 0 160.396089-66.714646 160.396089-146.040816L1022.265204 474.629118l-73.02031 0L949.244894 876.227153zM984.96462 3.0e-05 730.190799 3.0e-05c-20.717773 0.031641-36.47539 16.75-36.510546 36.510155-0.02832 19.756835 15.792968 36.542382 36.510546 36.510155l160.438081-1.170898L339.81581 597.212317c-14.56875 13.892578-14.56875 36.424804 0 50.324022 14.568359 13.885742 38.189843 13.885742 52.751366 0L948.169699 117.618777l1.075195 174.459565c-0.021484 19.756835 15.80664 36.541796 36.509765 36.510155 20.717773-0.025 36.489257-16.75332 36.510741-36.510155L1022.2654 35.58831C1022.308173 15.831475 1005.675361-0.02497 984.96462 3.0e-05z"  /></svg>