<?xml version="1.0" standalone="no"?><!DOCTYPE svg PUBLIC "-//W3C//DTD SVG 1.1//EN" "http://www.w3.org/Graphics/SVG/1.1/DTD/svg11.dtd"><svg class="icon" width="64px" height="64.00px" viewBox="0 0 1024 1024" version="1.1" xmlns="http://www.w3.org/2000/svg"><path d="M829.13794 7.163143H208.902844c-103.263875 0-187.265034 84.008322-187.265034 187.265035v635.331933c0 103.257735 84.001159 187.265034 187.265034 187.265034H829.13794c103.263875 0 187.265034-84.007299 187.265035-187.265034V194.428178c0-103.257735-84.001159-187.265034-187.265035-187.265035z m145.650242 609.925287H656.041604c-55.824423 0-101.231589-45.414329-101.231589-101.231589 0-55.824423 45.407166-101.238752 101.231589-101.238752h318.746578v202.470341zM656.041604 373.003296c-78.772065 0-142.846382 64.081481-142.846382 142.853545 0 78.764901 64.074318 142.846382 142.846382 142.846382h318.746578v171.056888c0 80.310094-65.334008 145.650241-145.650242 145.650241H208.902844c-80.316234 0-145.650241-65.341171-145.650241-145.650241V194.428178c0-80.310094 65.334008-145.650241 145.650241-145.650241H829.13794c80.316234 0 145.650241 65.341171 145.650242 145.650241v178.575118H656.041604z" fill="#d81e06" /><path d="M696.692443 523.251252m-48.54974 0a48.549739 48.549739 0 1 0 97.099479 0 48.549739 48.549739 0 1 0-97.099479 0Z" fill="#d81e06" /></svg>